<svg width="53" height="60" viewBox="0 0 53 60" fill="none" xmlns="http://www.w3.org/2000/svg">
<g clip-path="url(#clip0_38143_50)">
<path d="M48.75 0C46.875 0 33.75 3.75 33.75 20.625V33.75C33.75 37.8867 37.1133 41.25 41.25 41.25H45V56.25C45 58.3242 46.6758 60 48.75 60C50.8242 60 52.5 58.3242 52.5 56.25V41.25V28.125V3.75C52.5 1.67578 50.8242 0 48.75 0ZM7.5 1.875C7.5 0.914063 6.78516 0.117187 5.82422 0.0117188C4.86328 -0.09375 4.00781 0.539062 3.79688 1.46484L0.246094 17.4375C0.0820312 18.1758 0 18.9258 0 19.6758C0 25.0547 4.11328 29.4727 9.375 29.9531V56.25C9.375 58.3242 11.0508 60 13.125 60C15.1992 60 16.875 58.3242 16.875 56.25V29.9531C22.1367 29.4727 26.25 25.0547 26.25 19.6758C26.25 18.9258 26.168 18.1758 26.0039 17.4375L22.4531 1.46484C22.2422 0.527344 21.3633 -0.09375 20.4141 0.0117188C19.4648 0.117187 18.75 0.914063 18.75 1.875V17.6016C18.75 18.2344 18.2344 18.75 17.6016 18.75C17.0039 18.75 16.5117 18.293 16.4531 17.6953L14.9883 1.71094C14.9063 0.738281 14.0977 0 13.125 0C12.1523 0 11.3437 0.738281 11.2617 1.71094L9.80859 17.6953C9.75 18.293 9.25781 18.75 8.66016 18.75C8.02734 18.75 7.51172 18.2344 7.51172 17.6016V1.875H7.5ZM13.1602 19.6875H13.125H13.0898L13.125 19.6055L13.1602 19.6875Z" fill="#FF8C00"/>
</g>
<defs>
<clipPath id="clip0_38143_50">
<rect width="52.5" height="60" fill="white"/>
</clipPath>
</defs>
</svg>
