<svg width="49" height="55" viewBox="0 0 49 55" fill="none" xmlns="http://www.w3.org/2000/svg">
<g clip-path="url(#clip0_38143_54)">
<path d="M34.375 5.15625C34.375 3.78873 33.8318 2.47721 32.8648 1.51023C31.8978 0.543246 30.5863 0 29.2188 0C27.8512 0 26.5397 0.543246 25.5727 1.51023C24.6057 2.47721 24.0625 3.78873 24.0625 5.15625C24.0625 6.52377 24.6057 7.83528 25.5727 8.80227C26.5397 9.76925 27.8512 10.3125 29.2188 10.3125C30.5863 10.3125 31.8978 9.76925 32.8648 8.80227C33.8318 7.83528 34.375 6.52377 34.375 5.15625ZM13.5029 18.8525C14.5664 17.7891 16.0166 17.1875 17.5312 17.1875C17.7354 17.1875 17.9395 17.1982 18.1328 17.2197L14.7813 27.2852C13.7822 30.293 14.9639 33.6016 17.6602 35.2881L26.9199 41.0781L24.1914 50.6172C23.665 52.4434 24.7285 54.3447 26.5547 54.8711C28.3809 55.3975 30.2822 54.334 30.8086 52.5078L33.8916 41.7227C34.5254 39.5098 33.6123 37.1465 31.668 35.9326L25.5664 32.1191L28.8857 23.2676L29.4336 24.5889C31.0449 28.4346 34.7939 30.9375 38.9619 30.9375H41.25C43.1514 30.9375 44.6875 29.4014 44.6875 27.5C44.6875 25.5986 43.1514 24.0625 41.25 24.0625H38.9619C37.5762 24.0625 36.3193 23.2246 35.793 21.9463L35.1162 20.335C33.5479 16.5645 30.3789 13.6855 26.4687 12.4824L21.2373 10.8711C20.0449 10.5059 18.7988 10.3125 17.542 10.3125C14.2119 10.3125 11.0107 11.6338 8.6582 13.9971L6.16602 16.4785C4.82324 17.8213 4.82324 20.002 6.16602 21.3447C7.50879 22.6875 9.68945 22.6875 11.0322 21.3447L13.5137 18.8633L13.5029 18.8525ZM9.79687 37.8125H3.4375C1.53613 37.8125 0 39.3486 0 41.25C0 43.1514 1.53613 44.6875 3.4375 44.6875H10.9141C12.9551 44.6875 14.8027 43.4844 15.6299 41.626L16.8652 38.8437L15.8447 38.1992C13.9648 37.0283 12.5684 35.3203 11.7734 33.376L9.79687 37.8125Z" fill="#FF8C00"/>
</g>
<defs>
<clipPath id="clip0_38143_54">
<rect width="48.125" height="55" fill="white"/>
</clipPath>
</defs>
</svg>
