<svg width="50" height="44" viewBox="0 0 50 44" fill="none" xmlns="http://www.w3.org/2000/svg">
<path d="M43.75 0.125H35.3418L35.2441 0.222656L22.8418 12.625H31.8359L31.9336 12.5273L44.3164 0.154297C44.1309 0.134766 43.9453 0.125 43.75 0.125ZM50 12.625V6.375C50 4.90039 49.4824 3.5332 48.6328 2.46875L38.4766 12.625H50ZM28.7207 0.125H19.7168L19.6191 0.222656L7.2168 12.625H16.2109L16.3086 12.5273L28.7109 0.125H28.7207ZM6.25 0.125C2.80273 0.125 0 2.92773 0 6.375V12.625H0.595703L0.693359 12.5273L13.0957 0.125H6.25ZM50 15.75H0V37.625C0 41.0723 2.80273 43.875 6.25 43.875H43.75C47.1973 43.875 50 41.0723 50 37.625V15.75Z" fill="#FF8C00"/>
</svg>
