<svg width="62" height="50" viewBox="0 0 62 50" fill="none" xmlns="http://www.w3.org/2000/svg">
<path d="M18.6 6.59998C8.33125 6.59998 0 14.9312 0 25.2C0 35.4687 8.33125 43.8 18.6 43.8H43.4C53.6687 43.8 62 35.4687 62 25.2C62 14.9312 53.6687 6.59998 43.4 6.59998H18.6ZM48.05 16.675C49.0777 16.675 50.0633 17.0832 50.79 17.8099C51.5167 18.5366 51.925 19.5223 51.925 20.55C51.925 21.5777 51.5167 22.5633 50.79 23.29C50.0633 24.0167 49.0777 24.425 48.05 24.425C47.0223 24.425 46.0367 24.0167 45.31 23.29C44.5833 22.5633 44.175 21.5777 44.175 20.55C44.175 19.5223 44.5833 18.5366 45.31 17.8099C46.0367 17.0832 47.0223 16.675 48.05 16.675ZM37.975 29.85C37.975 28.8223 38.3833 27.8366 39.11 27.1099C39.8367 26.3832 40.8223 25.975 41.85 25.975C42.8777 25.975 43.8633 26.3832 44.59 27.1099C45.3167 27.8366 45.725 28.8223 45.725 29.85C45.725 30.8777 45.3167 31.8633 44.59 32.59C43.8633 33.3167 42.8777 33.725 41.85 33.725C40.8223 33.725 39.8367 33.3167 39.11 32.59C38.3833 31.8633 37.975 30.8777 37.975 29.85ZM16.275 19.775C16.275 18.4865 17.3116 17.45 18.6 17.45C19.8884 17.45 20.925 18.4865 20.925 19.775V22.875H24.025C25.3134 22.875 26.35 23.9115 26.35 25.2C26.35 26.4884 25.3134 27.525 24.025 27.525H20.925V30.625C20.925 31.9134 19.8884 32.95 18.6 32.95C17.3116 32.95 16.275 31.9134 16.275 30.625V27.525H13.175C11.8866 27.525 10.85 26.4884 10.85 25.2C10.85 23.9115 11.8866 22.875 13.175 22.875H16.275V19.775Z" fill="#FF8C00"/>
</svg>
