<svg width="60" height="52" viewBox="0 0 60 52" fill="none" xmlns="http://www.w3.org/2000/svg">
<path d="M19.5017 35.75C30.2739 35.75 39.0023 27.7469 39.0023 17.875C39.0023 8.00313 30.2739 0 19.5017 0C8.72945 0 0.00102608 8.00313 0.00102608 17.875C0.00102608 21.7953 1.3792 25.4211 3.71365 28.3766C3.38552 29.3312 2.898 30.1742 2.38236 30.8852C1.93234 31.5148 1.47295 32.0023 1.13544 32.3375C0.966684 32.5 0.826054 32.632 0.732301 32.7133C0.685424 32.7539 0.647923 32.7844 0.629172 32.7945L0.610422 32.8148C0.0947792 33.2313 -0.130228 33.9625 0.0760286 34.6227C0.282286 35.2828 0.85418 35.75 1.50108 35.75C3.5449 35.75 5.60747 35.1813 7.32315 34.4805C8.18568 34.125 8.99196 33.7289 9.6951 33.3227C12.5733 34.8664 15.9203 35.75 19.5017 35.75ZM42.0024 17.875C42.0024 29.2805 32.7115 37.8727 21.7049 38.8984C23.9831 46.4547 31.5396 52 40.5024 52C44.0838 52 47.4308 51.1164 50.3184 49.5727C51.0215 49.9789 51.8184 50.375 52.6809 50.7305C54.3966 51.4313 56.4592 52 58.503 52C59.1499 52 59.7312 51.543 59.9281 50.8727C60.1249 50.2023 59.9093 49.4711 59.3843 49.0547L59.3655 49.0344C59.3468 49.0141 59.3093 48.9938 59.2624 48.9531C59.1687 48.8719 59.028 48.75 58.8593 48.5773C58.5218 48.2422 58.0624 47.7547 57.6123 47.125C57.0967 46.4141 56.6092 45.5609 56.2811 44.6164C58.6155 41.6711 59.9937 38.0453 59.9937 34.1148C59.9937 24.6898 52.034 16.9609 41.9368 16.2906C41.9743 16.8086 41.9931 17.3367 41.9931 17.8648L42.0024 17.875Z" fill="#FF8C00"/>
</svg>
