<svg width="52" height="52" viewBox="0 0 52 52" fill="none" xmlns="http://www.w3.org/2000/svg">
<path d="M46.4286 0H5.57143C2.49554 0 0 2.49554 0 5.57143V46.4286C0 49.5045 2.49554 52 5.57143 52H46.4286C49.5045 52 52 49.5045 52 46.4286V5.57143C52 2.49554 49.5045 0 46.4286 0ZM28.2982 40.5554C28.2982 45.6161 25.3268 47.9259 20.9973 47.9259C17.0857 47.9259 14.8223 45.9062 13.6616 43.4571L17.6429 41.0545C18.4089 42.4125 19.1054 43.5616 20.7884 43.5616C22.3902 43.5616 23.4116 42.9348 23.4116 40.4857V23.8759H28.2982V40.5554ZM39.8589 47.9259C35.3205 47.9259 32.3839 45.767 30.9563 42.9348L34.9375 40.6366C35.9821 42.3429 37.3518 43.608 39.7545 43.608C41.7741 43.608 43.0741 42.5982 43.0741 41.1937C43.0741 39.5223 41.7509 38.9304 39.5107 37.9437L38.292 37.4214C34.7634 35.9241 32.4304 34.0321 32.4304 30.0509C32.4304 26.383 35.2277 23.5973 39.5804 23.5973C42.6911 23.5973 44.9196 24.6768 46.5214 27.5089L42.7143 29.9464C41.8786 28.4491 40.9732 27.8571 39.5687 27.8571C38.1411 27.8571 37.2357 28.7625 37.2357 29.9464C37.2357 31.4089 38.1411 32.0009 40.242 32.9179L41.4607 33.4402C45.6161 35.2161 47.9491 37.0384 47.9491 41.1241C47.9491 45.5116 44.4902 47.9259 39.8589 47.9259Z" fill="#FF8C00"/>
</svg>
