<svg width="70" height="49" viewBox="0 0 70 49" fill="none" xmlns="http://www.w3.org/2000/svg">
<path opacity="0.7" d="M7 7C7 3.13906 10.1391 0 14 0H56C59.8609 0 63 3.13906 63 7V35H56V7H14V35H7V7ZM0 40.6C0 39.4406 0.940625 38.5 2.1 38.5H67.9C69.0594 38.5 70 39.4406 70 40.6C70 45.2375 66.2375 49 61.6 49H8.4C3.7625 49 0 45.2375 0 40.6ZM30.7344 19.3594L27.3438 22.75L30.7344 26.1406C31.7625 27.1687 31.7625 28.8312 30.7344 29.8484C29.7063 30.8656 28.0438 30.8766 27.0266 29.8484L21.7766 24.5984C20.7484 23.5703 20.7484 21.9078 21.7766 20.8906L27.0266 15.6406C28.0547 14.6125 29.7172 14.6125 30.7344 15.6406C31.7516 16.6687 31.7625 18.3312 30.7344 19.3484V19.3594ZM42.9844 15.6406L48.2344 20.8906C49.2625 21.9187 49.2625 23.5812 48.2344 24.5984L42.9844 29.8484C41.9563 30.8766 40.2938 30.8766 39.2766 29.8484C38.2594 28.8203 38.2484 27.1578 39.2766 26.1406L42.6672 22.75L39.2766 19.3594C38.2484 18.3313 38.2484 16.6688 39.2766 15.6516C40.3047 14.6344 41.9672 14.6234 42.9844 15.6516V15.6406Z" fill="#FF8C00"/>
</svg>
