<svg width="55" height="49" viewBox="0 0 55 49" fill="none" xmlns="http://www.w3.org/2000/svg">
<path d="M44.9238 16.4687C44.3438 16.2754 43.7637 16.0928 43.1836 15.9209C43.2803 15.5234 43.3662 15.126 43.4521 14.7285C44.7734 8.32617 43.9033 3.18066 40.9707 1.4834C38.1455 -0.138672 33.5371 1.54785 28.875 5.6084C28.4131 6.00586 27.9619 6.4248 27.5322 6.84375C27.2422 6.56445 26.9414 6.28516 26.6406 6.0166C21.7529 1.67676 16.8545 -0.149414 13.9219 1.55859C11.1074 3.19141 10.2695 8.03613 11.4512 14.0947C11.5693 14.6963 11.6982 15.2871 11.8486 15.8887C11.1611 16.082 10.4844 16.2969 9.85059 16.5225C4.11426 18.5098 0 21.6465 0 24.8906C0 28.2422 4.38281 31.6045 10.3447 33.6455C10.8281 33.8066 11.3115 33.9678 11.8057 34.1074C11.6445 34.752 11.5049 35.3857 11.376 36.041C10.248 42.0029 11.1289 46.7295 13.9434 48.3516C16.8438 50.0273 21.7207 48.3086 26.4687 44.1514C26.8447 43.8184 27.2207 43.4746 27.5967 43.1094C28.0693 43.5713 28.5635 44.0117 29.0576 44.4414C33.6553 48.3945 38.1992 49.9951 41.0029 48.373C43.9033 46.6973 44.8486 41.6162 43.624 35.4287C43.5273 34.9561 43.4199 34.4727 43.3018 33.9785C43.6455 33.8818 43.9785 33.7744 44.3115 33.667C50.5098 31.6152 55 28.2959 55 24.8906C55 21.6357 50.7676 18.4775 44.9238 16.4687ZM30.3896 7.34863C34.3857 3.86816 38.1133 2.50391 39.8105 3.48144C41.626 4.52344 42.3242 8.73437 41.1855 14.2666C41.1104 14.6318 41.0352 14.9863 40.9385 15.3408C38.5537 14.8037 36.1367 14.417 33.709 14.2021C32.3125 12.2041 30.7871 10.292 29.1328 8.49805C29.5518 8.10059 29.96 7.72461 30.3896 7.34863ZM17.9609 30.4658C18.5088 31.4004 19.0674 32.335 19.6582 33.248C17.9824 33.0654 16.3174 32.7969 14.6738 32.4424C15.1465 30.8955 15.7373 29.2949 16.4248 27.6621C16.9189 28.6074 17.4238 29.542 17.9609 30.4658ZM14.7061 17.543C16.2529 17.1992 17.8965 16.9199 19.6045 16.7051C19.0352 17.5967 18.4766 18.5098 17.9502 19.4336C17.4238 20.3467 16.9082 21.2812 16.4248 22.2266C15.748 20.626 15.1787 19.0576 14.7061 17.543ZM17.6494 24.9443C18.3584 23.4619 19.1318 22.0117 19.9482 20.583C20.7646 19.1543 21.6455 17.7686 22.5693 16.4043C24.1807 16.2861 25.8242 16.2217 27.5 16.2217C29.1758 16.2217 30.8301 16.2861 32.4307 16.4043C33.3437 17.7578 34.2139 19.1436 35.041 20.5615C35.8682 21.9795 36.6416 23.4297 37.3721 24.9014C36.6523 26.3838 35.8789 27.8447 35.0518 29.2842C34.2354 30.7129 33.3652 32.0986 32.4521 33.4736C30.8516 33.5918 29.1865 33.6455 27.5 33.6455C25.8135 33.6455 24.1807 33.5918 22.6016 33.4951C21.667 32.1309 20.7861 30.7344 19.959 29.3057C19.1318 27.877 18.3691 26.4268 17.6494 24.9443ZM37.0498 30.4443C37.5977 29.499 38.1133 28.543 38.6182 27.5762C39.3057 29.1338 39.9072 30.7129 40.4336 32.335C38.7686 32.7109 37.082 33.001 35.3848 33.1943C35.9648 32.292 36.5127 31.3682 37.0498 30.4443ZM38.5967 22.2266C38.0918 21.2812 37.5762 20.3359 37.0391 19.4121C36.5127 18.499 35.9648 17.5967 35.3955 16.7051C37.125 16.9199 38.7793 17.21 40.3262 17.5645C39.832 19.1543 39.252 20.7012 38.5967 22.2266ZM27.5215 10.1416C28.6494 11.3662 29.7129 12.6553 30.7012 13.9873C28.5742 13.8906 26.4365 13.8906 24.3096 13.9873C25.3623 12.6016 26.4473 11.3125 27.5215 10.1416ZM15.0605 3.55664C16.8652 2.50391 20.8721 4.00781 25.0938 7.74609C25.3623 7.98242 25.6309 8.24023 25.9102 8.49805C24.2451 10.292 22.709 12.2041 21.3018 14.2021C18.874 14.417 16.4678 14.793 14.083 15.3193C13.9434 14.7715 13.8252 14.2129 13.707 13.6543C12.6973 8.45508 13.3633 4.53418 15.0605 3.55664ZM12.4287 31.873C11.9775 31.7441 11.5371 31.6045 11.0967 31.4541C8.80859 30.7344 6.20898 29.5957 4.3291 28.1025C3.24414 27.3506 2.51367 26.1904 2.30957 24.8906C2.30957 22.9248 5.7041 20.4111 10.6025 18.7031C11.2148 18.4883 11.8379 18.2949 12.4609 18.1123C13.1914 20.4434 14.0723 22.7314 15.0928 24.9443C14.0615 27.1895 13.1699 29.5098 12.4287 31.873ZM24.9541 42.4004C23.1816 44.0225 21.1299 45.3115 18.8955 46.1924C17.7031 46.7617 16.3281 46.8154 15.1035 46.332C13.3955 45.3438 12.6865 41.5518 13.6533 36.4492C13.7715 35.8477 13.9004 35.2461 14.0508 34.6553C16.457 35.1709 18.8848 35.5254 21.3447 35.708C22.7627 37.7168 24.3203 39.6396 25.9854 41.4443C25.6416 41.7773 25.2979 42.0996 24.9541 42.4004ZM27.5859 39.79C26.4902 38.6084 25.3945 37.2979 24.3311 35.8906C25.3623 35.9336 26.4258 35.9551 27.5 35.9551C28.6064 35.9551 29.6914 35.9336 30.7656 35.8799C29.7773 37.2441 28.7139 38.5439 27.5859 39.79ZM41.626 43.0127C41.5293 44.3232 40.8848 45.5479 39.8535 46.375C38.1455 47.3633 34.5039 46.0742 30.5723 42.7012C30.1211 42.3145 29.6699 41.8955 29.208 41.4658C30.8516 39.6504 32.3662 37.7275 33.7412 35.708C36.2012 35.5039 38.6504 35.1279 41.0674 34.5801C41.1748 35.0205 41.2715 35.4609 41.3574 35.8906C41.8838 38.2109 41.9697 40.6279 41.626 43.0127ZM43.5811 31.4648C43.2803 31.5615 42.9795 31.6582 42.668 31.7441C41.916 29.4023 40.9922 27.1143 39.9287 24.8906C40.96 22.6992 41.8301 20.4434 42.5605 18.1338C43.1191 18.2949 43.6563 18.4668 44.1719 18.6387C49.1777 20.3574 52.6904 22.9141 52.6904 24.8691C52.6904 26.9746 48.9414 29.6924 43.5811 31.4648ZM27.5 29.8535C30.2178 29.8535 32.4199 27.6514 32.4199 24.9336C32.4199 22.2158 30.2178 20.0137 27.5 20.0137C24.7822 20.0137 22.5801 22.2158 22.5801 24.9336C22.5801 27.6514 24.7822 29.8535 27.5 29.8535Z" fill="#FF8C00"/>
</svg>
