<svg width="60" height="54" viewBox="0 0 60 54" fill="none" xmlns="http://www.w3.org/2000/svg">
<g clip-path="url(#clip0_38142_46)">
<path d="M50.2396 20.6666C53.8021 20.6666 60 23.6875 60 27.3333C60 31.0833 53.8021 34 50.2396 34H38.0938L27.625 52.3229C27.0313 53.3645 25.9271 54 24.7292 54H18.875C17.7708 54 16.9687 52.9375 17.2708 51.875L22.375 34H11.6667L7.16667 40C6.85417 40.4166 6.35417 40.6666 5.83333 40.6666H1.45833C0.645833 40.6666 0 40.0104 0 39.2083C0 39.0729 0.0208333 38.9375 0.0520833 38.802L3.33333 27.3333L0.0520833 15.8645C0.0104167 15.7291 0 15.5937 0 15.4583C0 14.6458 0.65625 14 1.45833 14H5.83333C6.35417 14 6.85417 14.25 7.16667 14.6666L11.6667 20.6666H22.3854L17.2812 2.79163C16.9687 1.72913 17.7708 0.666626 18.875 0.666626H24.7292C25.9271 0.666626 27.0313 1.31246 27.625 2.34371L38.0938 20.6666H50.2396Z" fill="#FF8C00"/>
</g>
<defs>
<clipPath id="clip0_38142_46">
<rect width="60" height="53.3333" fill="white" transform="translate(0 0.666626)"/>
</clipPath>
</defs>
</svg>
